<svg xmlns="http://www.w3.org/2000/svg" xmlns:xlink="http://www.w3.org/1999/xlink" width="18" height="20" viewBox="0 0 18 20"><defs><path id="t945a" d="M1662.455 474.121c.38.469.545.987.48 1.504-.065.511-.351.98-.83 1.362-.208.163-.42.32-.626.467-.302.224-.59.43-.846.663-.005.008-.014.01-.02.017-.739.61-1.614.856-2.606.737-.085-.008-.18-.026-.269-.04-1.46-.266-2.708-.956-3.638-1.529a20.014 20.014 0 0 1-6.075-5.897c-1.32-1.985-2.145-3.789-2.61-5.69-.19-.774-.415-1.945-.158-3.146a3.068 3.068 0 0 1 1.176-1.825l1.639-1.251.01-.008c.48-.345 1.012-.496 1.535-.433.524.059.994.33 1.36.781.247.283.484.58.709.868.111.149.232.3.348.442l1.028 1.276c.79.976.647 2.107-.365 2.872-.135.102-.27.209-.405.31-.357.275-.724.558-1.115.83.19.591.48 1.187.934 1.906.94 1.447 1.964 2.603 3.135 3.538a5.5 5.5 0 0 0 .397.267c.1.069.205.135.31.207l1.52-1.146c.487-.37 1.021-.53 1.549-.469.532.064 1.005.348 1.368.818zm-.923.689l-2.074-2.57-.007-.009c-.115-.158-.314-.345-.58-.378-.27-.031-.523.108-.687.236l-1.647 1.244c-.082.061-.332.251-.688.21a.94.94 0 0 1-.412-.154c-.016-.012-.032-.027-.048-.036a4.881 4.881 0 0 0-.396-.27c-.161-.105-.33-.213-.493-.34-1.27-1.01-2.379-2.258-3.384-3.812l-.003-.005c-.55-.878-.894-1.601-1.108-2.354-.003-.012-.006-.024-.008-.039-.048-.241-.072-.603.342-.915a22.75 22.75 0 0 0 1.23-.903c.139-.101.274-.208.414-.314.51-.385.562-.793.163-1.287l-1.027-1.274c-.12-.154-.24-.304-.357-.452a21.294 21.294 0 0 0-.677-.834c-.004-.007-.008-.011-.012-.016-.12-.15-.319-.332-.59-.367-.218-.025-.454.055-.689.22l-1.642 1.242c-.4.303-.644.685-.748 1.165-.161.753-.118 1.575.15 2.66.433 1.768 1.211 3.463 2.457 5.347a18.94 18.94 0 0 0 5.723 5.55c.836.52 1.959 1.145 3.223 1.373.063.008.132.018.197.024.669.083 1.206-.067 1.696-.465.305-.27.622-.51.933-.733.207-.154.399-.29.588-.444-.005.003-.004 0 0 0 .493-.388.549-.827.16-1.3z"/></defs><g><g transform="translate(-1645 -459)"><use fill="#4baaa4" xlink:href="#t945a"/></g></g></svg>