<svg xmlns="http://www.w3.org/2000/svg" xmlns:xlink="http://www.w3.org/1999/xlink" width="18" height="24" viewBox="0 0 18 24"><defs><path id="gpwwa" d="M1661 399.283v4.17c0 .298-.238.539-.532.539h-16.936a.536.536 0 0 1-.532-.54v-4.169c0-2.004 1.572-3.639 3.53-3.708.018-.004 2.74.082 3.145-2.884-1.321-.934-2.29-2.648-2.554-4.714a.549.549 0 0 1-.125-.186 6.326 6.326 0 0 1-.27-.83c-.339-1.346-.235-2.742.292-3.924.543-1.218 1.467-2.074 2.603-2.406.238-.071.486-.117.738-.137a4.603 4.603 0 0 1 2.088-.501c2.766 0 5.016 2.463 5.016 5.491 0 .789-.15 1.549-.444 2.262a.532.532 0 0 1-.134.191c-.163 1.326-.62 2.548-1.33 3.525-.366.502-.78.915-1.23 1.234.405 2.96 3.127 2.875 3.145 2.88 1.958.068 3.53 1.702 3.53 3.707zm-13.256-12.649a5.023 5.023 0 0 0 1.205-2.187.655.655 0 0 1 .592-.496.648.648 0 0 1 .645.412.998.998 0 0 0 .92.631h3.63a2.31 2.31 0 0 1 1.657.706c.004-.071.006-.145.006-.216 0-2.433-1.773-4.413-3.952-4.413-.587 0-1.158.148-1.697.436a.545.545 0 0 1-.223.061 2.59 2.59 0 0 0-.61.1c-1.742.512-2.708 2.73-2.173 4.966zm4.257 5.746c2.143 0 3.887-2.482 3.887-5.533v-.01a1.263 1.263 0 0 0-1.153-.761h-3.628a2.023 2.023 0 0 1-1.395-.553 6.112 6.112 0 0 1-1.549 2.203c.144 1.27.598 2.43 1.29 3.29.71.878 1.615 1.364 2.548 1.364zm-2.872 3.392l2.797 4.043a.09.09 0 0 0 .075.039.09.09 0 0 0 .075-.039l2.796-4.043a4.23 4.23 0 0 1-1.548-2.547 3.858 3.858 0 0 1-1.323.235c-.458 0-.902-.084-1.324-.237a4.242 4.242 0 0 1-1.548 2.549zm10.806 7.138v-3.627c0-1.448-1.162-2.629-2.59-2.629-.02 0-.78 0-1.552-.332l-2.845 4.113c-.217.313-.57.499-.947.499s-.73-.186-.947-.499l-2.846-4.116c-.677.315-1.534.335-1.553.335-1.428 0-2.59 1.181-2.59 2.629v3.627z"/></defs><g><g transform="translate(-1643 -380)"><use fill="#4baaa4" xlink:href="#gpwwa"/></g></g></svg>