<svg xmlns="http://www.w3.org/2000/svg" xmlns:xlink="http://www.w3.org/1999/xlink" width="22" height="24" viewBox="0 0 22 24"><defs><path id="1lmda" d="M1642.292 622.939a.912.912 0 0 1-.292.046.913.913 0 0 1-.293-.046c-10.707-3.472-10.54-11.704-10.417-17.712.014-.648.026-1.26.026-1.848 0-.463.4-.837.895-.837 3.825 0 6.737-1.03 9.165-3.24a.941.941 0 0 1 1.247 0c2.428 2.21 5.34 3.24 9.166 3.24.494 0 .895.374.895.837 0 .588.012 1.195.026 1.848.122 6.008.29 14.239-10.418 17.712zm8.629-17.685c-.008-.362-.015-.708-.02-1.056-3.583-.138-6.448-1.16-8.901-3.155-2.453 1.995-5.318 3.013-8.901 3.155-.005.348-.012.694-.02 1.056-.123 6.043-.262 12.883 8.92 16.005 9.184-3.122 9.045-9.962 8.922-16.005zm-4.576 2.862c.35.327.35.86 0 1.181l-4.95 4.64a.943.943 0 0 1-1.265 0l-2.475-2.32a.8.8 0 0 1 0-1.184.938.938 0 0 1 1.265 0l1.842 1.726 4.318-4.043a.94.94 0 0 1 1.265 0z"/></defs><g><g transform="translate(-1631 -599)"><use fill="#4baaa4" xlink:href="#1lmda"/></g></g></svg>